<svg version="1.1" viewBox="0.0 0.0 785.0 485.0" fill="none" stroke="none" stroke-linecap="square" stroke-miterlimit="10" width="785" height="485" xmlns:xlink="http://www.w3.org/1999/xlink" xmlns="http://www.w3.org/2000/svg"><path fill="#ffffff" d="M0 0L785.0 0L785.0 485.0L0 485.0L0 0Z" fill-rule="nonzero"/><path fill="#4285f4" d="M392.5 64.416664C426.91364 64.416664 460.73407 73.378586 490.63193 90.42018L392.5 262.58334Z" fill-rule="nonzero"/><path fill="#ea4335" d="M490.63193 90.42018C543.36926 120.48014 579.42017 173.05292 588.45795 233.07912L392.5 262.58334Z" fill-rule="nonzero"/><path fill="#fbbc04" d="M588.45795 233.07912C593.44885 266.22717 589.9494 300.09955 578.2869 331.5271L392.5 262.58334Z" fill-rule="nonzero"/><path fill="#ff6d01" d="M264.22693 111.53353C300.04572 81.11584 345.50827 64.416664 392.5 64.416664L392.5 262.58334Z" fill-rule="nonzero"/><path fill="#34a853" d="M578.2869 331.5271C549.40564 409.35535 475.07535 460.9333 392.06128 460.7495C309.0472 460.56573 234.94603 408.65915 206.4096 330.70377C177.87318 252.74838 200.95042 165.26859 264.22693 111.53353L392.5 262.58334Z" fill-rule="nonzero"/><path fill="#1a1a1a" d="M27.34375 80.43171L27.5 81.353584Q27.046875 81.447334 26.703125 81.447334Q26.125 81.447334 25.8125 81.27546Q25.5 81.08796 25.359375 80.791084Q25.234375 80.49421 25.234375 79.541084L25.234375 75.96296L24.46875 75.96296L24.46875 75.15046L25.234375 75.15046L25.234375 73.603584L26.28125 72.978584L26.28125 75.15046L27.34375 75.15046L27.34375 75.96296L26.28125 75.96296L26.28125 79.603584Q26.28125 80.05671 26.328125 80.18171Q26.390625 80.30671 26.515625 80.384834Q26.640625 80.46296 26.875 80.46296Q27.0625 80.46296 27.34375 80.43171ZM32.296875 79.36921L33.390625 79.49421Q33.140625 80.447334 32.4375 80.978584Q31.734375 81.509834 30.65625 81.509834Q29.296875 81.509834 28.484375 80.666084Q27.6875 79.822334 27.6875 78.30671Q27.6875 76.74421 28.5 75.884834Q29.3125 75.009834 30.59375 75.009834Q31.84375 75.009834 32.625 75.853584Q33.421875 76.697334 33.421875 78.24421Q33.421875 78.33796 33.421875 78.52546L28.78125 78.52546Q28.84375 79.55671 29.359375 80.103584Q29.875 80.634834 30.65625 80.634834Q31.234375 80.634834 31.640625 80.33796Q32.0625 80.02546 32.296875 79.36921ZM28.84375 77.666084L32.3125 77.666084Q32.25 76.86921 31.921875 76.478584Q31.40625 75.86921 30.609375 75.86921Q29.875 75.86921 29.375 76.353584Q28.890625 76.83796 28.84375 77.666084ZM34.625 79.509834L35.65625 79.353584Q35.75 79.978584 36.140625 80.30671Q36.546875 80.634834 37.28125 80.634834Q38.0 80.634834 38.34375 80.353584Q38.703125 80.05671 38.703125 79.65046Q38.703125 79.291084 38.390625 79.08796Q38.171875 78.947334 37.3125 78.728584Q36.15625 78.43171 35.703125 78.228584Q35.265625 78.009834 35.03125 77.634834Q34.796875 77.259834 34.796875 76.791084Q34.796875 76.384834 34.984375 76.02546Q35.171875 75.666084 35.5 75.43171Q35.75 75.259834 36.171875 75.134834Q36.59375 75.009834 37.09375 75.009834Q37.8125 75.009834 38.359375 75.228584Q38.921875 75.43171 39.1875 75.791084Q39.453125 76.15046 39.546875 76.74421L38.515625 76.884834Q38.453125 76.416084 38.109375 76.15046Q37.78125 75.86921 37.15625 75.86921Q36.4375 75.86921 36.125 76.11921Q35.8125 76.353584 35.8125 76.68171Q35.8125 76.884834 35.9375 77.041084Q36.078125 77.21296 36.34375 77.322334Q36.5 77.384834 37.28125 77.58796Q38.40625 77.90046 38.84375 78.08796Q39.28125 78.27546 39.53125 78.634834Q39.78125 78.99421 39.78125 79.541084Q39.78125 80.072334 39.46875 80.541084Q39.171875 80.99421 38.59375 81.259834Q38.015625 81.509834 37.28125 81.509834Q36.0625 81.509834 35.421875 81.009834Q34.796875 80.49421 34.625 79.509834ZM44.34375 80.43171L44.5 81.353584Q44.046875 81.447334 43.703125 81.447334Q43.125 81.447334 42.8125 81.27546Q42.5 81.08796 42.359375 80.791084Q42.234375 80.49421 42.234375 79.541084L42.234375 75.96296L41.46875 75.96296L41.46875 75.15046L42.234375 75.15046L42.234375 73.603584L43.28125 72.978584L43.28125 75.15046L44.34375 75.15046L44.34375 75.96296L43.28125 75.96296L43.28125 79.603584Q43.28125 80.05671 43.328125 80.18171Q43.390625 80.30671 43.515625 80.384834Q43.640625 80.46296 43.875 80.46296Q44.0625 80.46296 44.34375 80.43171ZM45.046875 73.99421L45.046875 72.77546L46.109375 72.77546L46.109375 73.99421L45.046875 73.99421ZM45.046875 81.36921L45.046875 75.15046L46.109375 75.15046L46.109375 81.36921L45.046875 81.36921ZM48.046875 81.36921L48.046875 75.15046L48.984375 75.15046L48.984375 76.02546Q49.671875 75.009834 50.96875 75.009834Q51.53125 75.009834 52.0 75.21296Q52.484375 75.416084 52.71875 75.74421Q52.953125 76.072334 53.046875 76.509834Q53.09375 76.80671 53.09375 77.541084L53.09375 81.36921L52.046875 81.36921L52.046875 77.58796Q52.046875 76.93171 51.921875 76.61921Q51.796875 76.30671 51.484375 76.11921Q51.171875 75.916084 50.75 75.916084Q50.078125 75.916084 49.578125 76.353584Q49.09375 76.77546 49.09375 77.96296L49.09375 81.36921L48.046875 81.36921ZM54.84375 81.884834L55.875 82.041084Q55.9375 82.509834 56.234375 82.728584Q56.625 83.02546 57.296875 83.02546Q58.03125 83.02546 58.421875 82.728584Q58.828125 82.43171 58.96875 81.916084Q59.0625 81.58796 59.046875 80.55671Q58.359375 81.36921 57.328125 81.36921Q56.046875 81.36921 55.34375 80.447334Q54.640625 79.509834 54.640625 78.228584Q54.640625 77.33796 54.953125 76.58796Q55.28125 75.822334 55.890625 75.416084Q56.5 75.009834 57.328125 75.009834Q58.4375 75.009834 59.15625 75.90046L59.15625 75.15046L60.125 75.15046L60.125 80.52546Q60.125 81.978584 59.828125 82.58796Q59.53125 83.197334 58.890625 83.541084Q58.25 83.90046 57.3125 83.90046Q56.203125 83.90046 55.515625 83.40046Q54.828125 82.90046 54.84375 81.884834ZM55.71875 78.15046Q55.71875 79.36921 56.203125 79.93171Q56.6875 80.49421 57.421875 80.49421Q58.15625 80.49421 58.640625 79.93171Q59.140625 79.36921 59.140625 78.18171Q59.140625 77.041084 58.625 76.46296Q58.125 75.884834 57.40625 75.884834Q56.703125 75.884834 56.203125 76.46296Q55.71875 77.02546 55.71875 78.15046Z" fill-rule="nonzero"/><path fill="#9e9e9e" d="M28.71875 98.36921L27.671875 98.36921L27.671875 91.65046Q27.28125 92.009834 26.65625 92.384834Q26.046875 92.74421 25.5625 92.916084L25.5625 91.90046Q26.4375 91.478584 27.09375 90.90046Q27.765625 90.30671 28.046875 89.74421L28.71875 89.74421L28.71875 98.36921ZM35.71875 98.36921L34.671875 98.36921L34.671875 91.65046Q34.28125 92.009834 33.65625 92.384834Q33.046875 92.74421 32.5625 92.916084L32.5625 91.90046Q33.4375 91.478584 34.09375 90.90046Q34.765625 90.30671 35.046875 89.74421L35.71875 89.74421L35.71875 98.36921ZM39.34375 98.36921L39.34375 97.166084L40.546875 97.166084L40.546875 98.36921L39.34375 98.36921ZM47.296875 97.353584L47.296875 98.36921L41.609375 98.36921Q41.609375 97.99421 41.734375 97.634834Q41.953125 97.05671 42.421875 96.49421Q42.90625 95.93171 43.8125 95.197334Q45.21875 94.041084 45.703125 93.36921Q46.203125 92.697334 46.203125 92.103584Q46.203125 91.478584 45.75 91.05671Q45.296875 90.61921 44.578125 90.61921Q43.8125 90.61921 43.359375 91.072334Q42.90625 91.52546 42.890625 92.33796L41.8125 92.228584Q41.921875 91.009834 42.640625 90.384834Q43.375 89.74421 44.609375 89.74421Q45.84375 89.74421 46.5625 90.43171Q47.28125 91.11921 47.28125 92.134834Q47.28125 92.65046 47.0625 93.15046Q46.859375 93.634834 46.359375 94.197334Q45.875 94.74421 44.75 95.697334Q43.796875 96.49421 43.515625 96.791084Q43.25 97.072334 43.078125 97.353584L47.296875 97.353584ZM48.953125 91.83796Q48.953125 90.916084 49.40625 90.27546Q49.875 89.634834 50.75 89.634834Q51.5625 89.634834 52.09375 90.21296Q52.625 90.791084 52.625 91.90046Q52.625 92.99421 52.078125 93.58796Q51.546875 94.166084 50.765625 94.166084Q49.984375 94.166084 49.46875 93.58796Q48.953125 93.009834 48.953125 91.83796ZM50.78125 90.353584Q50.390625 90.353584 50.125 90.697334Q49.875 91.041084 49.875 91.947334Q49.875 92.77546 50.125 93.11921Q50.390625 93.447334 50.78125 93.447334Q51.1875 93.447334 51.4375 93.103584Q51.703125 92.759834 51.703125 91.86921Q51.703125 91.02546 51.4375 90.697334Q51.171875 90.353584 50.78125 90.353584ZM50.78125 98.68171L55.484375 89.634834L56.34375 89.634834L51.65625 98.68171L50.78125 98.68171ZM54.5 96.353584Q54.5 95.43171 54.953125 94.791084Q55.421875 94.15046 56.3125 94.15046Q57.125 94.15046 57.65625 94.728584Q58.1875 95.291084 58.1875 96.416084Q58.1875 97.509834 57.640625 98.103584Q57.109375 98.68171 56.3125 98.68171Q55.546875 98.68171 55.015625 98.103584Q54.5 97.52546 54.5 96.353584ZM56.34375 94.86921Q55.9375 94.86921 55.671875 95.21296Q55.421875 95.55671 55.421875 96.46296Q55.421875 97.27546 55.6875 97.61921Q55.953125 97.96296 56.34375 97.96296Q56.734375 97.96296 57.0 97.61921Q57.265625 97.27546 57.265625 96.36921Q57.265625 95.541084 57.0 95.21296Q56.734375 94.86921 56.34375 94.86921Z" fill-rule="nonzero"/><path stroke="#757575" stroke-width="1.0" stroke-linecap="butt" d="M24.25 85.86921L188.33333 85.86921L327.58994 85.86921" fill-rule="nonzero"/><path fill="#9e9e9e" d="M329.58994 85.86921C329.58994 84.76464 328.6945 83.86921 327.58994 83.86921C326.48535 83.86921 325.58994 84.76464 325.58994 85.86921C325.58994 86.97378 326.48535 87.86921 327.58994 87.86921C328.6945 87.86921 329.58994 86.97378 329.58994 85.86921" fill-rule="nonzero"/><path fill="#1a1a1a" d="M29.109375 409.99435L30.140625 410.13498Q29.96875 411.19748 29.265625 411.80685Q28.5625 412.41623 27.546875 412.41623Q26.265625 412.41623 25.484375 411.5881Q24.71875 410.74435 24.71875 409.18185Q24.71875 408.18185 25.046875 407.43185Q25.390625 406.66623 26.0625 406.29123Q26.75 405.91623 27.5625 405.91623Q28.5625 405.91623 29.203125 406.43185Q29.859375 406.93185 30.046875 407.88498L29.015625 408.04123Q28.875 407.41623 28.5 407.10373Q28.125 406.7756 27.59375 406.7756Q26.796875 406.7756 26.296875 407.35373Q25.796875 407.91623 25.796875 409.1506Q25.796875 410.41623 26.28125 410.97873Q26.765625 411.54123 27.53125 411.54123Q28.15625 411.54123 28.5625 411.16623Q28.984375 410.79123 29.109375 409.99435ZM30.65625 409.16623Q30.65625 407.43185 31.609375 406.60373Q32.40625 405.91623 33.5625 405.91623Q34.84375 405.91623 35.65625 406.75998Q36.484375 407.5881 36.484375 409.07248Q36.484375 410.2756 36.125 410.9631Q35.765625 411.6506 35.0625 412.04123Q34.375 412.41623 33.5625 412.41623Q32.265625 412.41623 31.453125 411.5881Q30.65625 410.74435 30.65625 409.16623ZM31.734375 409.16623Q31.734375 410.35373 32.25 410.94748Q32.78125 411.54123 33.5625 411.54123Q34.359375 411.54123 34.875 410.94748Q35.390625 410.35373 35.390625 409.13498Q35.390625 407.97873 34.859375 407.38498Q34.34375 406.79123 33.5625 406.79123Q32.78125 406.79123 32.25 407.38498Q31.734375 407.9631 31.734375 409.16623ZM42.078125 412.2756L42.078125 411.49435Q41.484375 412.41623 40.34375 412.41623Q39.59375 412.41623 38.96875 412.00998Q38.34375 411.5881 38.0 410.85373Q37.65625 410.11935 37.65625 409.16623Q37.65625 408.24435 37.96875 407.47873Q38.28125 406.7131 38.90625 406.32248Q39.53125 405.91623 40.296875 405.91623Q40.859375 405.91623 41.296875 406.1506Q41.734375 406.38498 42.015625 406.75998L42.015625 403.68185L43.0625 403.68185L43.0625 412.2756L42.078125 412.2756ZM38.75 409.16623Q38.75 410.36935 39.25 410.9631Q39.75 411.54123 40.4375 411.54123Q41.125 411.54123 41.609375 410.97873Q42.09375 410.41623 42.09375 409.25998Q42.09375 407.97873 41.59375 407.38498Q41.109375 406.79123 40.390625 406.79123Q39.6875 406.79123 39.21875 407.36935Q38.75 407.93185 38.75 409.16623ZM45.046875 404.9006L45.046875 403.68185L46.109375 403.68185L46.109375 404.9006L45.046875 404.9006ZM45.046875 412.2756L45.046875 406.05685L46.109375 406.05685L46.109375 412.2756L45.046875 412.2756ZM48.046875 412.2756L48.046875 406.05685L48.984375 406.05685L48.984375 406.93185Q49.671875 405.91623 50.96875 405.91623Q51.53125 405.91623 52.0 406.11935Q52.484375 406.32248 52.71875 406.6506Q52.953125 406.97873 53.046875 407.41623Q53.09375 407.7131 53.09375 408.44748L53.09375 412.2756L52.046875 412.2756L52.046875 408.49435Q52.046875 407.8381 51.921875 407.5256Q51.796875 407.2131 51.484375 407.0256Q51.171875 406.82248 50.75 406.82248Q50.078125 406.82248 49.578125 407.25998Q49.09375 407.68185 49.09375 408.86935L49.09375 412.2756L48.046875 412.2756ZM54.84375 412.79123L55.875 412.94748Q55.9375 413.41623 56.234375 413.63498Q56.625 413.93185 57.296875 413.93185Q58.03125 413.93185 58.421875 413.63498Q58.828125 413.3381 58.96875 412.82248Q59.0625 412.49435 59.046875 411.4631Q58.359375 412.2756 57.328125 412.2756Q56.046875 412.2756 55.34375 411.35373Q54.640625 410.41623 54.640625 409.13498Q54.640625 408.24435 54.953125 407.49435Q55.28125 406.72873 55.890625 406.32248Q56.5 405.91623 57.328125 405.91623Q58.4375 405.91623 59.15625 406.80685L59.15625 406.05685L60.125 406.05685L60.125 411.43185Q60.125 412.88498 59.828125 413.49435Q59.53125 414.10373 58.890625 414.44748Q58.25 414.80685 57.3125 414.80685Q56.203125 414.80685 55.515625 414.30685Q54.828125 413.80685 54.84375 412.79123ZM55.71875 409.05685Q55.71875 410.2756 56.203125 410.8381Q56.6875 411.4006 57.421875 411.4006Q58.15625 411.4006 58.640625 410.8381Q59.140625 410.2756 59.140625 409.0881Q59.140625 407.94748 58.625 407.36935Q58.125 406.79123 57.40625 406.79123Q56.703125 406.79123 56.203125 407.36935Q55.71875 407.93185 55.71875 409.05685Z" fill-rule="nonzero"/><path fill="#9e9e9e" d="M24.75 427.0256L25.859375 426.93185Q25.984375 427.74435 26.421875 428.1506Q26.875 428.55685 27.515625 428.55685Q28.265625 428.55685 28.796875 427.97873Q29.328125 427.4006 29.328125 426.4631Q29.328125 425.55685 28.8125 425.04123Q28.3125 424.50998 27.484375 424.50998Q26.984375 424.50998 26.5625 424.74435Q26.15625 424.97873 25.921875 425.3381L24.9375 425.2131L25.765625 420.80685L30.046875 420.80685L30.046875 421.80685L26.609375 421.80685L26.15625 424.11935Q26.921875 423.57248 27.765625 423.57248Q28.890625 423.57248 29.65625 424.35373Q30.4375 425.13498 30.4375 426.36935Q30.4375 427.5256 29.765625 428.38498Q28.9375 429.41623 27.515625 429.41623Q26.34375 429.41623 25.59375 428.75998Q24.859375 428.10373 24.75 427.0256ZM33.375 424.61935Q32.71875 424.36935 32.390625 423.93185Q32.078125 423.47873 32.078125 422.86935Q32.078125 421.93185 32.75 421.29123Q33.4375 420.6506 34.546875 420.6506Q35.671875 420.6506 36.359375 421.30685Q37.046875 421.9631 37.046875 422.9006Q37.046875 423.49435 36.734375 423.93185Q36.421875 424.36935 35.78125 424.61935Q36.578125 424.86935 36.984375 425.44748Q37.390625 426.0256 37.390625 426.82248Q37.390625 427.91623 36.609375 428.66623Q35.84375 429.41623 34.5625 429.41623Q33.296875 429.41623 32.515625 428.66623Q31.734375 427.91623 31.734375 426.79123Q31.734375 425.94748 32.15625 425.38498Q32.59375 424.82248 33.375 424.61935ZM33.15625 422.82248Q33.15625 423.43185 33.546875 423.82248Q33.953125 424.2131 34.578125 424.2131Q35.1875 424.2131 35.578125 423.8381Q35.96875 423.44748 35.96875 422.88498Q35.96875 422.30685 35.5625 421.91623Q35.15625 421.50998 34.5625 421.50998Q33.953125 421.50998 33.546875 421.9006Q33.15625 422.29123 33.15625 422.82248ZM32.828125 426.79123Q32.828125 427.24435 33.03125 427.66623Q33.25 428.0881 33.671875 428.32248Q34.09375 428.55685 34.578125 428.55685Q35.328125 428.55685 35.8125 428.07248Q36.3125 427.5881 36.3125 426.8381Q36.3125 426.07248 35.8125 425.57248Q35.3125 425.07248 34.546875 425.07248Q33.796875 425.07248 33.3125 425.57248Q32.828125 426.05685 32.828125 426.79123ZM39.34375 429.2756L39.34375 428.07248L40.546875 428.07248L40.546875 429.2756L39.34375 429.2756ZM45.71875 429.2756L44.671875 429.2756L44.671875 422.55685Q44.28125 422.91623 43.65625 423.29123Q43.046875 423.6506 42.5625 423.82248L42.5625 422.80685Q43.4375 422.38498 44.09375 421.80685Q44.765625 421.2131 45.046875 420.6506L45.71875 420.6506L45.71875 429.2756ZM48.953125 422.74435Q48.953125 421.82248 49.40625 421.18185Q49.875 420.54123 50.75 420.54123Q51.5625 420.54123 52.09375 421.11935Q52.625 421.69748 52.625 422.80685Q52.625 423.9006 52.078125 424.49435Q51.546875 425.07248 50.765625 425.07248Q49.984375 425.07248 49.46875 424.49435Q48.953125 423.91623 48.953125 422.74435ZM50.78125 421.25998Q50.390625 421.25998 50.125 421.60373Q49.875 421.94748 49.875 422.85373Q49.875 423.68185 50.125 424.0256Q50.390625 424.35373 50.78125 424.35373Q51.1875 424.35373 51.4375 424.00998Q51.703125 423.66623 51.703125 422.7756Q51.703125 421.93185 51.4375 421.60373Q51.171875 421.25998 50.78125 421.25998ZM50.78125 429.5881L55.484375 420.54123L56.34375 420.54123L51.65625 429.5881L50.78125 429.5881ZM54.5 427.25998Q54.5 426.3381 54.953125 425.69748Q55.421875 425.05685 56.3125 425.05685Q57.125 425.05685 57.65625 425.63498Q58.1875 426.19748 58.1875 427.32248Q58.1875 428.41623 57.640625 429.00998Q57.109375 429.5881 56.3125 429.5881Q55.546875 429.5881 55.015625 429.00998Q54.5 428.43185 54.5 427.25998ZM56.34375 425.7756Q55.9375 425.7756 55.671875 426.11935Q55.421875 426.4631 55.421875 427.36935Q55.421875 428.18185 55.6875 428.5256Q55.953125 428.86935 56.34375 428.86935Q56.734375 428.86935 57.0 428.5256Q57.265625 428.18185 57.265625 427.2756Q57.265625 426.44748 57.0 426.11935Q56.734375 425.7756 56.34375 425.7756Z" fill-rule="nonzero"/><path stroke="#757575" stroke-width="1.0" stroke-linecap="butt" d="M24.25 416.7756L188.33333 416.7756L284.491 416.7756" fill-rule="nonzero"/><path fill="#9e9e9e" d="M286.491 416.7756C286.491 415.67105 285.59558 414.7756 284.491 414.7756C283.38644 414.7756 282.491 415.67105 282.491 416.7756C282.491 417.8802 283.38644 418.7756 284.491 418.7756C285.59558 418.7756 286.491 417.8802 286.491 416.7756" fill-rule="nonzero"/><path fill="#1a1a1a" d="M730.125 74.24622L731.15625 74.08997Q731.25 74.71497 731.6406 75.0431Q732.0469 75.37122 732.78125 75.37122Q733.5 75.37122 733.84375 75.08997Q734.2031 74.7931 734.2031 74.38685Q734.2031 74.02747 733.8906 73.82435Q733.6719 73.68372 732.8125 73.46497Q731.65625 73.1681 731.2031 72.96497Q730.7656 72.74622 730.53125 72.37122Q730.2969 71.99622 730.2969 71.52747Q730.2969 71.12122 730.4844 70.76185Q730.6719 70.40247 731.0 70.1681Q731.25 69.99622 731.6719 69.87122Q732.09375 69.74622 732.59375 69.74622Q733.3125 69.74622 733.8594 69.96497Q734.4219 70.1681 734.6875 70.52747Q734.9531 70.88685 735.0469 71.4806L734.0156 71.62122Q733.9531 71.15247 733.6094 70.88685Q733.28125 70.6056 732.65625 70.6056Q731.9375 70.6056 731.625 70.8556Q731.3125 71.08997 731.3125 71.4181Q731.3125 71.62122 731.4375 71.77747Q731.5781 71.94935 731.84375 72.05872Q732.0 72.12122 732.78125 72.32435Q733.90625 72.63685 734.34375 72.82435Q734.78125 73.01185 735.03125 73.37122Q735.28125 73.7306 735.28125 74.27747Q735.28125 74.80872 734.96875 75.27747Q734.6719 75.7306 734.09375 75.99622Q733.5156 76.24622 732.78125 76.24622Q731.5625 76.24622 730.9219 75.74622Q730.2969 75.2306 730.125 74.24622ZM741.7969 74.1056L742.8906 74.2306Q742.6406 75.18372 741.9375 75.71497Q741.2344 76.24622 740.15625 76.24622Q738.7969 76.24622 737.9844 75.40247Q737.1875 74.55872 737.1875 73.0431Q737.1875 71.4806 738.0 70.62122Q738.8125 69.74622 740.09375 69.74622Q741.34375 69.74622 742.125 70.58997Q742.9219 71.43372 742.9219 72.9806Q742.9219 73.07435 742.9219 73.26185L738.28125 73.26185Q738.34375 74.2931 738.8594 74.83997Q739.375 75.37122 740.15625 75.37122Q740.7344 75.37122 741.1406 75.07435Q741.5625 74.76185 741.7969 74.1056ZM738.34375 72.40247L741.8125 72.40247Q741.75 71.6056 741.4219 71.21497Q740.90625 70.6056 740.1094 70.6056Q739.375 70.6056 738.875 71.08997Q738.3906 71.57435 738.34375 72.40247ZM746.84375 75.1681L747.0 76.08997Q746.5469 76.18372 746.2031 76.18372Q745.625 76.18372 745.3125 76.01185Q745.0 75.82435 744.8594 75.52747Q744.7344 75.2306 744.7344 74.27747L744.7344 70.69935L743.96875 70.69935L743.96875 69.88685L744.7344 69.88685L744.7344 68.33997L745.78125 67.71497L745.78125 69.88685L746.84375 69.88685L746.84375 70.69935L745.78125 70.69935L745.78125 74.33997Q745.78125 74.7931 745.8281 74.9181Q745.8906 75.0431 746.0156 75.12122Q746.1406 75.19935 746.375 75.19935Q746.5625 75.19935 746.84375 75.1681ZM751.625 76.1056L751.625 75.18372Q750.8906 76.24622 749.6406 76.24622Q749.09375 76.24622 748.6094 76.0431Q748.1406 75.82435 747.90625 75.51185Q747.6719 75.18372 747.5781 74.71497Q747.5156 74.4181 747.5156 73.7306L747.5156 69.88685L748.5781 69.88685L748.5781 73.33997Q748.5781 74.15247 748.6406 74.44935Q748.7344 74.8556 749.0469 75.1056Q749.375 75.33997 749.8594 75.33997Q750.3281 75.33997 750.7344 75.1056Q751.15625 74.8556 751.3281 74.43372Q751.5156 74.01185 751.5156 73.21497L751.5156 69.88685L752.5625 69.88685L752.5625 76.1056L751.625 76.1056ZM754.5469 78.49622L754.5469 69.88685L755.5 69.88685L755.5 70.68372Q755.84375 70.21497 756.2656 69.9806Q756.7031 69.74622 757.3125 69.74622Q758.1094 69.74622 758.71875 70.15247Q759.3281 70.55872 759.625 71.30872Q759.9375 72.05872 759.9375 72.94935Q759.9375 73.90247 759.59375 74.6681Q759.2656 75.43372 758.6094 75.83997Q757.9531 76.24622 757.2344 76.24622Q756.7031 76.24622 756.28125 76.02747Q755.8594 75.7931 755.59375 75.46497L755.59375 78.49622L754.5469 78.49622ZM755.5 73.02747Q755.5 74.2306 755.9844 74.80872Q756.46875 75.37122 757.15625 75.37122Q757.8594 75.37122 758.3594 74.77747Q758.8594 74.18372 758.8594 72.93372Q758.8594 71.74622 758.375 71.1681Q757.8906 70.57435 757.2031 70.57435Q756.53125 70.57435 756.0156 71.19935Q755.5 71.82435 755.5 73.02747Z" fill-rule="nonzero"/><path fill="#9e9e9e" d="M734.875 88.44935Q734.21875 88.19935 733.8906 87.76185Q733.5781 87.30872 733.5781 86.69935Q733.5781 85.76185 734.25 85.12122Q734.9375 84.4806 736.0469 84.4806Q737.1719 84.4806 737.8594 85.13685Q738.5469 85.7931 738.5469 86.7306Q738.5469 87.32435 738.2344 87.76185Q737.9219 88.19935 737.28125 88.44935Q738.0781 88.69935 738.4844 89.27747Q738.8906 89.8556 738.8906 90.65247Q738.8906 91.74622 738.1094 92.49622Q737.34375 93.24622 736.0625 93.24622Q734.7969 93.24622 734.0156 92.49622Q733.2344 91.74622 733.2344 90.62122Q733.2344 89.77747 733.65625 89.21497Q734.09375 88.65247 734.875 88.44935ZM734.65625 86.65247Q734.65625 87.26185 735.0469 87.65247Q735.4531 88.0431 736.0781 88.0431Q736.6875 88.0431 737.0781 87.6681Q737.46875 87.27747 737.46875 86.71497Q737.46875 86.13685 737.0625 85.74622Q736.65625 85.33997 736.0625 85.33997Q735.4531 85.33997 735.0469 85.7306Q734.65625 86.12122 734.65625 86.65247ZM734.3281 90.62122Q734.3281 91.07435 734.53125 91.49622Q734.75 91.9181 735.1719 92.15247Q735.59375 92.38685 736.0781 92.38685Q736.8281 92.38685 737.3125 91.90247Q737.8125 91.4181 737.8125 90.6681Q737.8125 89.90247 737.3125 89.40247Q736.8125 88.90247 736.0469 88.90247Q735.2969 88.90247 734.8125 89.40247Q734.3281 89.88685 734.3281 90.62122ZM740.84375 93.1056L740.84375 91.90247L742.0469 91.90247L742.0469 93.1056L740.84375 93.1056ZM748.7969 92.08997L748.7969 93.1056L743.1094 93.1056Q743.1094 92.7306 743.2344 92.37122Q743.4531 91.7931 743.9219 91.2306Q744.40625 90.6681 745.3125 89.93372Q746.71875 88.77747 747.2031 88.1056Q747.7031 87.43372 747.7031 86.83997Q747.7031 86.21497 747.25 85.7931Q746.7969 85.3556 746.0781 85.3556Q745.3125 85.3556 744.8594 85.80872Q744.40625 86.26185 744.3906 87.07435L743.3125 86.96497Q743.4219 85.74622 744.1406 85.12122Q744.875 84.4806 746.1094 84.4806Q747.34375 84.4806 748.0625 85.1681Q748.78125 85.8556 748.78125 86.87122Q748.78125 87.38685 748.5625 87.88685Q748.3594 88.37122 747.8594 88.93372Q747.375 89.4806 746.25 90.43372Q745.2969 91.2306 745.0156 91.52747Q744.75 91.80872 744.5781 92.08997L748.7969 92.08997ZM750.4531 86.57435Q750.4531 85.65247 750.90625 85.01185Q751.375 84.37122 752.25 84.37122Q753.0625 84.37122 753.59375 84.94935Q754.125 85.52747 754.125 86.63685Q754.125 87.7306 753.5781 88.32435Q753.0469 88.90247 752.2656 88.90247Q751.4844 88.90247 750.96875 88.32435Q750.4531 87.74622 750.4531 86.57435ZM752.28125 85.08997Q751.8906 85.08997 751.625 85.43372Q751.375 85.77747 751.375 86.68372Q751.375 87.51185 751.625 87.8556Q751.8906 88.18372 752.28125 88.18372Q752.6875 88.18372 752.9375 87.83997Q753.2031 87.49622 753.2031 86.6056Q753.2031 85.76185 752.9375 85.43372Q752.6719 85.08997 752.28125 85.08997ZM752.28125 93.4181L756.9844 84.37122L757.84375 84.37122L753.15625 93.4181L752.28125 93.4181ZM756.0 91.08997Q756.0 90.1681 756.4531 89.52747Q756.9219 88.88685 757.8125 88.88685Q758.625 88.88685 759.15625 89.46497Q759.6875 90.02747 759.6875 91.15247Q759.6875 92.24622 759.1406 92.83997Q758.6094 93.4181 757.8125 93.4181Q757.0469 93.4181 756.5156 92.83997Q756.0 92.26185 756.0 91.08997ZM757.84375 89.6056Q757.4375 89.6056 757.1719 89.94935Q756.9219 90.2931 756.9219 91.19935Q756.9219 92.01185 757.1875 92.3556Q757.4531 92.69935 757.84375 92.69935Q758.2344 92.69935 758.5 92.3556Q758.7656 92.01185 758.7656 91.1056Q758.7656 90.27747 758.5 89.94935Q758.2344 89.6056 757.84375 89.6056Z" fill-rule="nonzero"/><path stroke="#757575" stroke-width="1.0" stroke-linecap="butt" d="M760.75 80.6056L596.6667 80.6056L440.7214 80.6056" fill-rule="nonzero"/><path fill="#9e9e9e" d="M442.7214 80.6056C442.7214 79.50103 441.826 78.6056 440.7214 78.6056C439.61685 78.6056 438.7214 79.50103 438.7214 80.6056C438.7214 81.71017 439.61685 82.6056 440.7214 82.6056C441.826 82.6056 442.7214 81.71017 442.7214 80.6056" fill-rule="nonzero"/><path fill="#1a1a1a" d="M719.53125 151.61586L719.53125 145.39711L720.4844 145.39711L720.4844 146.33461Q720.84375 145.67836 721.1406 145.47523Q721.4531 145.25648 721.8281 145.25648Q722.3594 145.25648 722.90625 145.58461L722.5469 146.56898Q722.15625 146.33461 721.78125 146.33461Q721.4219 146.33461 721.1406 146.55336Q720.875 146.75648 720.7656 147.13148Q720.5781 147.69398 720.5781 148.35023L720.5781 151.61586L719.53125 151.61586ZM727.7969 149.61586L728.8906 149.74086Q728.6406 150.69398 727.9375 151.22523Q727.2344 151.75648 726.15625 151.75648Q724.7969 151.75648 723.9844 150.91273Q723.1875 150.06898 723.1875 148.55336Q723.1875 146.99086 724.0 146.13148Q724.8125 145.25648 726.09375 145.25648Q727.34375 145.25648 728.125 146.10023Q728.9219 146.94398 728.9219 148.49086Q728.9219 148.58461 728.9219 148.77211L724.28125 148.77211Q724.34375 149.80336 724.8594 150.35023Q725.375 150.88148 726.15625 150.88148Q726.7344 150.88148 727.1406 150.58461Q727.5625 150.27211 727.7969 149.61586ZM724.34375 147.91273L727.8125 147.91273Q727.75 147.11586 727.4219 146.72523Q726.90625 146.11586 726.1094 146.11586Q725.375 146.11586 724.875 146.60023Q724.3906 147.08461 724.34375 147.91273ZM734.6094 150.85023Q734.0156 151.35023 733.46875 151.55336Q732.9375 151.75648 732.3125 151.75648Q731.28125 151.75648 730.7344 151.25648Q730.1875 150.75648 730.1875 149.97523Q730.1875 149.52211 730.3906 149.14711Q730.59375 148.75648 730.9375 148.53773Q731.28125 148.30336 731.7031 148.19398Q732.0 148.10023 732.6406 148.02211Q733.90625 147.88148 734.5156 147.66273Q734.5156 147.44398 734.5156 147.39711Q734.5156 146.74086 734.21875 146.47523Q733.8125 146.13148 733.0156 146.13148Q732.28125 146.13148 731.9219 146.39711Q731.5625 146.64711 731.3906 147.30336L730.3594 147.16273Q730.5 146.50648 730.8281 146.10023Q731.15625 145.69398 731.7656 145.47523Q732.375 145.25648 733.1719 145.25648Q733.96875 145.25648 734.46875 145.44398Q734.96875 145.63148 735.2031 145.91273Q735.4375 146.19398 735.53125 146.63148Q735.5781 146.89711 735.5781 147.60023L735.5781 149.00648Q735.5781 150.47523 735.6406 150.86586Q735.71875 151.25648 735.9219 151.61586L734.8125 151.61586Q734.65625 151.28773 734.6094 150.85023ZM734.5156 148.49086Q733.9375 148.72523 732.7969 148.89711Q732.1406 148.99086 731.875 149.11586Q731.6094 149.22523 731.4531 149.44398Q731.3125 149.66273 731.3125 149.94398Q731.3125 150.36586 731.625 150.64711Q731.9531 150.92836 732.5625 150.92836Q733.1719 150.92836 733.6406 150.66273Q734.125 150.39711 734.34375 149.92836Q734.5156 149.56898 734.5156 148.88148L734.5156 148.49086ZM741.5781 151.61586L741.5781 150.83461Q740.9844 151.75648 739.84375 151.75648Q739.09375 151.75648 738.46875 151.35023Q737.84375 150.92836 737.5 150.19398Q737.15625 149.45961 737.15625 148.50648Q737.15625 147.58461 737.46875 146.81898Q737.78125 146.05336 738.40625 145.66273Q739.03125 145.25648 739.7969 145.25648Q740.3594 145.25648 740.7969 145.49086Q741.2344 145.72523 741.5156 146.10023L741.5156 143.02211L742.5625 143.02211L742.5625 151.61586L741.5781 151.61586ZM738.25 148.50648Q738.25 149.70961 738.75 150.30336Q739.25 150.88148 739.9375 150.88148Q740.625 150.88148 741.1094 150.31898Q741.59375 149.75648 741.59375 148.60023Q741.59375 147.31898 741.09375 146.72523Q740.6094 146.13148 739.8906 146.13148Q739.1875 146.13148 738.71875 146.70961Q738.25 147.27211 738.25 148.50648ZM744.5469 144.24086L744.5469 143.02211L745.6094 143.02211L745.6094 144.24086L744.5469 144.24086ZM744.5469 151.61586L744.5469 145.39711L745.6094 145.39711L745.6094 151.61586L744.5469 151.61586ZM747.5469 151.61586L747.5469 145.39711L748.4844 145.39711L748.4844 146.27211Q749.1719 145.25648 750.46875 145.25648Q751.03125 145.25648 751.5 145.45961Q751.9844 145.66273 752.21875 145.99086Q752.4531 146.31898 752.5469 146.75648Q752.59375 147.05336 752.59375 147.78773L752.59375 151.61586L751.5469 151.61586L751.5469 147.83461Q751.5469 147.17836 751.4219 146.86586Q751.2969 146.55336 750.9844 146.36586Q750.6719 146.16273 750.25 146.16273Q749.5781 146.16273 749.0781 146.60023Q748.59375 147.02211 748.59375 148.20961L748.59375 151.61586L747.5469 151.61586ZM754.34375 152.13148L755.375 152.28773Q755.4375 152.75648 755.7344 152.97523Q756.125 153.27211 756.7969 153.27211Q757.53125 153.27211 757.9219 152.97523Q758.3281 152.67836 758.46875 152.16273Q758.5625 151.83461 758.5469 150.80336Q757.8594 151.61586 756.8281 151.61586Q755.5469 151.61586 754.84375 150.69398Q754.1406 149.75648 754.1406 148.47523Q754.1406 147.58461 754.4531 146.83461Q754.78125 146.06898 755.3906 145.66273Q756.0 145.25648 756.8281 145.25648Q757.9375 145.25648 758.65625 146.14711L758.65625 145.39711L759.625 145.39711L759.625 150.77211Q759.625 152.22523 759.3281 152.83461Q759.03125 153.44398 758.3906 153.78773Q757.75 154.14711 756.8125 154.14711Q755.7031 154.14711 755.0156 153.64711Q754.3281 153.14711 754.34375 152.13148ZM755.21875 148.39711Q755.21875 149.61586 755.7031 150.17836Q756.1875 150.74086 756.9219 150.74086Q757.65625 150.74086 758.1406 150.17836Q758.6406 149.61586 758.6406 148.42836Q758.6406 147.28773 758.125 146.70961Q757.625 146.13148 756.90625 146.13148Q756.2031 146.13148 755.7031 146.70961Q755.21875 147.27211 755.21875 148.39711Z" fill-rule="nonzero"/><path fill="#9e9e9e" d="M730.21875 168.61586L729.1719 168.61586L729.1719 161.89711Q728.78125 162.25648 728.15625 162.63148Q727.5469 162.99086 727.0625 163.16273L727.0625 162.14711Q727.9375 161.72523 728.59375 161.14711Q729.2656 160.55336 729.5469 159.99086L730.21875 159.99086L730.21875 168.61586ZM736.625 168.61586L736.625 166.55336L732.90625 166.55336L732.90625 165.58461L736.8281 160.02211L737.6875 160.02211L737.6875 165.58461L738.84375 165.58461L738.84375 166.55336L737.6875 166.55336L737.6875 168.61586L736.625 168.61586ZM736.625 165.58461L736.625 161.72523L733.9375 165.58461L736.625 165.58461ZM740.84375 168.61586L740.84375 167.41273L742.0469 167.41273L742.0469 168.61586L740.84375 168.61586ZM746.625 168.61586L746.625 166.55336L742.90625 166.55336L742.90625 165.58461L746.8281 160.02211L747.6875 160.02211L747.6875 165.58461L748.84375 165.58461L748.84375 166.55336L747.6875 166.55336L747.6875 168.61586L746.625 168.61586ZM746.625 165.58461L746.625 161.72523L743.9375 165.58461L746.625 165.58461ZM750.4531 162.08461Q750.4531 161.16273 750.90625 160.52211Q751.375 159.88148 752.25 159.88148Q753.0625 159.88148 753.59375 160.45961Q754.125 161.03773 754.125 162.14711Q754.125 163.24086 753.5781 163.83461Q753.0469 164.41273 752.2656 164.41273Q751.4844 164.41273 750.96875 163.83461Q750.4531 163.25648 750.4531 162.08461ZM752.28125 160.60023Q751.8906 160.60023 751.625 160.94398Q751.375 161.28773 751.375 162.19398Q751.375 163.02211 751.625 163.36586Q751.8906 163.69398 752.28125 163.69398Q752.6875 163.69398 752.9375 163.35023Q753.2031 163.00648 753.2031 162.11586Q753.2031 161.27211 752.9375 160.94398Q752.6719 160.60023 752.28125 160.60023ZM752.28125 168.92836L756.9844 159.88148L757.84375 159.88148L753.15625 168.92836L752.28125 168.92836ZM756.0 166.60023Q756.0 165.67836 756.4531 165.03773Q756.9219 164.39711 757.8125 164.39711Q758.625 164.39711 759.15625 164.97523Q759.6875 165.53773 759.6875 166.66273Q759.6875 167.75648 759.1406 168.35023Q758.6094 168.92836 757.8125 168.92836Q757.0469 168.92836 756.5156 168.35023Q756.0 167.77211 756.0 166.60023ZM757.84375 165.11586Q757.4375 165.11586 757.1719 165.45961Q756.9219 165.80336 756.9219 166.70961Q756.9219 167.52211 757.1875 167.86586Q757.4531 168.20961 757.84375 168.20961Q758.2344 168.20961 758.5 167.86586Q758.7656 167.52211 758.7656 166.61586Q758.7656 165.78773 758.5 165.45961Q758.2344 165.11586 757.84375 165.11586Z" fill-rule="nonzero"/><path stroke="#757575" stroke-width="1.0" stroke-linecap="butt" d="M760.75 156.11586L596.6667 156.11586L547.7607 156.11586" fill-rule="nonzero"/><path fill="#9e9e9e" d="M549.7607 156.11586C549.7607 155.01129 548.86523 154.11586 547.7607 154.11586C546.6561 154.11586 545.7607 155.01129 545.7607 156.11586C545.7607 157.22043 546.6561 158.11586 547.7607 158.11586C548.86523 158.11586 549.7607 157.22043 549.7607 156.11586" fill-rule="nonzero"/><path fill="#1a1a1a" d="M741.5781 277.43005L741.5781 276.6488Q740.9844 277.57068 739.84375 277.57068Q739.09375 277.57068 738.46875 277.16443Q737.84375 276.74255 737.5 276.00818Q737.15625 275.2738 737.15625 274.32068Q737.15625 273.3988 737.46875 272.63318Q737.78125 271.86755 738.40625 271.47693Q739.03125 271.07068 739.7969 271.07068Q740.3594 271.07068 740.7969 271.30505Q741.2344 271.53943 741.5156 271.91443L741.5156 268.8363L742.5625 268.8363L742.5625 277.43005L741.5781 277.43005ZM738.25 274.32068Q738.25 275.5238 738.75 276.11755Q739.25 276.69568 739.9375 276.69568Q740.625 276.69568 741.1094 276.13318Q741.59375 275.57068 741.59375 274.41443Q741.59375 273.13318 741.09375 272.53943Q740.6094 271.94568 739.8906 271.94568Q739.1875 271.94568 738.71875 272.5238Q738.25 273.0863 738.25 274.32068ZM748.6094 276.66443Q748.0156 277.16443 747.46875 277.36755Q746.9375 277.57068 746.3125 277.57068Q745.28125 277.57068 744.7344 277.07068Q744.1875 276.57068 744.1875 275.78943Q744.1875 275.3363 744.3906 274.9613Q744.59375 274.57068 744.9375 274.35193Q745.28125 274.11755 745.7031 274.00818Q746.0 273.91443 746.6406 273.8363Q747.90625 273.69568 748.5156 273.47693Q748.5156 273.25818 748.5156 273.2113Q748.5156 272.55505 748.21875 272.28943Q747.8125 271.94568 747.0156 271.94568Q746.28125 271.94568 745.9219 272.2113Q745.5625 272.4613 745.3906 273.11755L744.3594 272.97693Q744.5 272.32068 744.8281 271.91443Q745.15625 271.50818 745.7656 271.28943Q746.375 271.07068 747.1719 271.07068Q747.96875 271.07068 748.46875 271.25818Q748.96875 271.44568 749.2031 271.72693Q749.4375 272.00818 749.53125 272.44568Q749.5781 272.7113 749.5781 273.41443L749.5781 274.82068Q749.5781 276.28943 749.6406 276.68005Q749.71875 277.07068 749.9219 277.43005L748.8125 277.43005Q748.65625 277.10193 748.6094 276.66443ZM748.5156 274.30505Q747.9375 274.53943 746.7969 274.7113Q746.1406 274.80505 745.875 274.93005Q745.6094 275.03943 745.4531 275.25818Q745.3125 275.47693 745.3125 275.75818Q745.3125 276.18005 745.625 276.4613Q745.9531 276.74255 746.5625 276.74255Q747.1719 276.74255 747.6406 276.47693Q748.125 276.2113 748.34375 275.74255Q748.5156 275.38318 748.5156 274.69568L748.5156 274.30505ZM753.84375 276.49255L754.0 277.41443Q753.5469 277.50818 753.2031 277.50818Q752.625 277.50818 752.3125 277.3363Q752.0 277.1488 751.8594 276.85193Q751.7344 276.55505 751.7344 275.60193L751.7344 272.0238L750.96875 272.0238L750.96875 271.2113L751.7344 271.2113L751.7344 269.66443L752.78125 269.03943L752.78125 271.2113L753.84375 271.2113L753.84375 272.0238L752.78125 272.0238L752.78125 275.66443Q752.78125 276.11755 752.8281 276.24255Q752.8906 276.36755 753.0156 276.44568Q753.1406 276.5238 753.375 276.5238Q753.5625 276.5238 753.84375 276.49255ZM758.6094 276.66443Q758.0156 277.16443 757.46875 277.36755Q756.9375 277.57068 756.3125 277.57068Q755.28125 277.57068 754.7344 277.07068Q754.1875 276.57068 754.1875 275.78943Q754.1875 275.3363 754.3906 274.9613Q754.59375 274.57068 754.9375 274.35193Q755.28125 274.11755 755.7031 274.00818Q756.0 273.91443 756.6406 273.8363Q757.90625 273.69568 758.5156 273.47693Q758.5156 273.25818 758.5156 273.2113Q758.5156 272.55505 758.21875 272.28943Q757.8125 271.94568 757.0156 271.94568Q756.28125 271.94568 755.9219 272.2113Q755.5625 272.4613 755.3906 273.11755L754.3594 272.97693Q754.5 272.32068 754.8281 271.91443Q755.15625 271.50818 755.7656 271.28943Q756.375 271.07068 757.1719 271.07068Q757.96875 271.07068 758.46875 271.25818Q758.96875 271.44568 759.2031 271.72693Q759.4375 272.00818 759.53125 272.44568Q759.5781 272.7113 759.5781 273.41443L759.5781 274.82068Q759.5781 276.28943 759.6406 276.68005Q759.71875 277.07068 759.9219 277.43005L758.8125 277.43005Q758.65625 277.10193 758.6094 276.66443ZM758.5156 274.30505Q757.9375 274.53943 756.7969 274.7113Q756.1406 274.80505 755.875 274.93005Q755.6094 275.03943 755.4531 275.25818Q755.3125 275.47693 755.3125 275.75818Q755.3125 276.18005 755.625 276.4613Q755.9531 276.74255 756.5625 276.74255Q757.1719 276.74255 757.6406 276.47693Q758.125 276.2113 758.34375 275.74255Q758.5156 275.38318 758.5156 274.69568L758.5156 274.30505Z" fill-rule="nonzero"/><path fill="#9e9e9e" d="M734.875 289.7738Q734.21875 289.5238 733.8906 289.0863Q733.5781 288.63318 733.5781 288.0238Q733.5781 287.0863 734.25 286.44568Q734.9375 285.80505 736.0469 285.80505Q737.1719 285.80505 737.8594 286.4613Q738.5469 287.11755 738.5469 288.05505Q738.5469 288.6488 738.2344 289.0863Q737.9219 289.5238 737.28125 289.7738Q738.0781 290.0238 738.4844 290.60193Q738.8906 291.18005 738.8906 291.97693Q738.8906 293.07068 738.1094 293.82068Q737.34375 294.57068 736.0625 294.57068Q734.7969 294.57068 734.0156 293.82068Q733.2344 293.07068 733.2344 291.94568Q733.2344 291.10193 733.65625 290.53943Q734.09375 289.97693 734.875 289.7738ZM734.65625 287.97693Q734.65625 288.5863 735.0469 288.97693Q735.4531 289.36755 736.0781 289.36755Q736.6875 289.36755 737.0781 288.99255Q737.46875 288.60193 737.46875 288.03943Q737.46875 287.4613 737.0625 287.07068Q736.65625 286.66443 736.0625 286.66443Q735.4531 286.66443 735.0469 287.05505Q734.65625 287.44568 734.65625 287.97693ZM734.3281 291.94568Q734.3281 292.3988 734.53125 292.82068Q734.75 293.24255 735.1719 293.47693Q735.59375 293.7113 736.0781 293.7113Q736.8281 293.7113 737.3125 293.22693Q737.8125 292.74255 737.8125 291.99255Q737.8125 291.22693 737.3125 290.72693Q736.8125 290.22693 736.0469 290.22693Q735.2969 290.22693 734.8125 290.72693Q734.3281 291.2113 734.3281 291.94568ZM740.84375 294.43005L740.84375 293.22693L742.0469 293.22693L742.0469 294.43005L740.84375 294.43005ZM743.25 290.19568Q743.25 288.66443 743.5625 287.74255Q743.875 286.80505 744.4844 286.30505Q745.1094 285.80505 746.0469 285.80505Q746.7344 285.80505 747.25 286.0863Q747.78125 286.36755 748.125 286.8988Q748.46875 287.41443 748.65625 288.16443Q748.84375 288.91443 748.84375 290.19568Q748.84375 291.7113 748.53125 292.63318Q748.2344 293.55505 747.6094 294.07068Q747.0 294.57068 746.0469 294.57068Q744.8125 294.57068 744.09375 293.68005Q743.25 292.61755 743.25 290.19568ZM744.3281 290.19568Q744.3281 292.30505 744.8281 293.00818Q745.3281 293.7113 746.0469 293.7113Q746.78125 293.7113 747.2656 293.00818Q747.7656 292.30505 747.7656 290.19568Q747.7656 288.07068 747.2656 287.38318Q746.78125 286.68005 746.03125 286.68005Q745.3125 286.68005 744.875 287.28943Q744.3281 288.07068 744.3281 290.19568ZM750.4531 287.8988Q750.4531 286.97693 750.90625 286.3363Q751.375 285.69568 752.25 285.69568Q753.0625 285.69568 753.59375 286.2738Q754.125 286.85193 754.125 287.9613Q754.125 289.05505 753.5781 289.6488Q753.0469 290.22693 752.2656 290.22693Q751.4844 290.22693 750.96875 289.6488Q750.4531 289.07068 750.4531 287.8988ZM752.28125 286.41443Q751.8906 286.41443 751.625 286.75818Q751.375 287.10193 751.375 288.00818Q751.375 288.8363 751.625 289.18005Q751.8906 289.50818 752.28125 289.50818Q752.6875 289.50818 752.9375 289.16443Q753.2031 288.82068 753.2031 287.93005Q753.2031 287.0863 752.9375 286.75818Q752.6719 286.41443 752.28125 286.41443ZM752.28125 294.74255L756.9844 285.69568L757.84375 285.69568L753.15625 294.74255L752.28125 294.74255ZM756.0 292.41443Q756.0 291.49255 756.4531 290.85193Q756.9219 290.2113 757.8125 290.2113Q758.625 290.2113 759.15625 290.78943Q759.6875 291.35193 759.6875 292.47693Q759.6875 293.57068 759.1406 294.16443Q758.6094 294.74255 757.8125 294.74255Q757.0469 294.74255 756.5156 294.16443Q756.0 293.5863 756.0 292.41443ZM757.84375 290.93005Q757.4375 290.93005 757.1719 291.2738Q756.9219 291.61755 756.9219 292.5238Q756.9219 293.3363 757.1875 293.68005Q757.4531 294.0238 757.84375 294.0238Q758.2344 294.0238 758.5 293.68005Q758.7656 293.3363 758.7656 292.43005Q758.7656 291.60193 758.5 291.2738Q758.2344 290.93005 757.84375 290.93005Z" fill-rule="nonzero"/><path stroke="#757575" stroke-width="1.0" stroke-linecap="butt" d="M760.75 281.93005L596.6667 281.93005L579.7616 281.93005" fill-rule="nonzero"/><path fill="#9e9e9e" d="M581.7616 281.93005C581.7616 280.82547 580.86615 279.93005 579.7616 279.93005C578.65704 279.93005 577.7616 280.82547 577.7616 281.93005C577.7616 283.0346 578.65704 283.93005 579.7616 283.93005C580.86615 283.93005 581.7616 283.0346 581.7616 281.93005" fill-rule="nonzero"/><path fill="#757575" d="M32.671875 39.90625L34.484375 40.140625Q34.0625 41.71875 32.890625 42.609375Q31.734375 43.484375 29.921875 43.484375Q27.65625 43.484375 26.3125 42.09375Q24.984375 40.6875 24.984375 38.15625Q24.984375 35.53125 26.328125 34.09375Q27.671875 32.640625 29.828125 32.640625Q31.90625 32.640625 33.21875 34.0625Q34.546875 35.46875 34.546875 38.046875Q34.546875 38.203125 34.53125 38.515625L26.796875 38.515625Q26.890625 40.21875 27.765625 41.125Q28.640625 42.03125 29.9375 42.03125Q30.90625 42.03125 31.578125 41.53125Q32.265625 41.015625 32.671875 39.90625ZM26.890625 37.0625L32.6875 37.0625Q32.578125 35.765625 32.03125 35.109375Q31.1875 34.09375 29.84375 34.09375Q28.640625 34.09375 27.8125 34.90625Q26.984375 35.703125 26.890625 37.0625ZM36.53125 43.25L36.53125 28.9375L38.28125 28.9375L38.28125 43.25L36.53125 43.25ZM47.34375 41.96875Q46.359375 42.796875 45.453125 43.140625Q44.546875 43.484375 43.515625 43.484375Q41.8125 43.484375 40.890625 42.65625Q39.96875 41.8125 39.96875 40.515625Q39.96875 39.75 40.3125 39.125Q40.671875 38.5 41.234375 38.125Q41.796875 37.734375 42.5 37.53125Q43.015625 37.40625 44.0625 37.265625Q46.1875 37.015625 47.1875 36.671875Q47.203125 36.3125 47.203125 36.203125Q47.203125 35.140625 46.703125 34.6875Q46.03125 34.09375 44.703125 34.09375Q43.453125 34.09375 42.859375 34.53125Q42.28125 34.96875 42.0 36.078125L40.28125 35.84375Q40.515625 34.734375 41.046875 34.0625Q41.578125 33.375 42.59375 33.015625Q43.609375 32.640625 44.953125 32.640625Q46.28125 32.640625 47.109375 32.953125Q47.9375 33.265625 48.328125 33.75Q48.71875 34.21875 48.875 34.9375Q48.96875 35.390625 48.96875 36.5625L48.96875 38.90625Q48.96875 41.359375 49.078125 42.015625Q49.1875 42.65625 49.53125 43.25L47.6875 43.25Q47.421875 42.703125 47.34375 41.96875ZM47.1875 38.046875Q46.234375 38.4375 44.3125 38.703125Q43.234375 38.859375 42.78125 39.0625Q42.34375 39.25 42.09375 39.625Q41.84375 40.0 41.84375 40.46875Q41.84375 41.171875 42.375 41.640625Q42.90625 42.109375 43.9375 42.109375Q44.953125 42.109375 45.734375 41.671875Q46.53125 41.21875 46.90625 40.453125Q47.1875 39.84375 47.1875 38.6875L47.1875 38.046875ZM51.5625 47.21875L51.5625 32.875L53.171875 32.875L53.171875 34.21875Q53.734375 33.4375 54.4375 33.046875Q55.15625 32.640625 56.171875 32.640625Q57.5 32.640625 58.515625 33.328125Q59.53125 34.015625 60.046875 35.265625Q60.578125 36.5 60.578125 37.984375Q60.578125 39.578125 60.0 40.859375Q59.4375 42.125 58.34375 42.8125Q57.25 43.484375 56.046875 43.484375Q55.171875 43.484375 54.46875 43.109375Q53.78125 42.734375 53.328125 42.171875L53.328125 47.21875L51.5625 47.21875ZM53.15625 38.125Q53.15625 40.125 53.96875 41.078125Q54.78125 42.03125 55.9375 42.03125Q57.109375 42.03125 57.9375 41.046875Q58.78125 40.0625 58.78125 37.96875Q58.78125 36.0 57.953125 35.015625Q57.140625 34.015625 56.015625 34.015625Q54.890625 34.015625 54.015625 35.078125Q53.15625 36.125 53.15625 38.125ZM61.859375 40.15625L63.609375 39.875Q63.75 40.921875 64.421875 41.484375Q65.09375 42.03125 66.296875 42.03125Q67.5 42.03125 68.078125 41.546875Q68.671875 41.046875 68.671875 40.390625Q68.671875 39.796875 68.15625 39.453125Q67.796875 39.21875 66.359375 38.859375Q64.421875 38.359375 63.671875 38.015625Q62.9375 37.65625 62.546875 37.03125Q62.15625 36.390625 62.15625 35.625Q62.15625 34.9375 62.46875 34.34375Q62.796875 33.75 63.34375 33.359375Q63.75 33.0625 64.453125 32.859375Q65.171875 32.640625 65.984375 32.640625Q67.203125 32.640625 68.125 33.0Q69.046875 33.34375 69.484375 33.953125Q69.921875 34.546875 70.09375 35.546875L68.375 35.78125Q68.25 34.984375 67.6875 34.546875Q67.125 34.09375 66.109375 34.09375Q64.890625 34.09375 64.375 34.5Q63.859375 34.890625 63.859375 35.421875Q63.859375 35.765625 64.078125 36.046875Q64.28125 36.328125 64.75 36.515625Q65.015625 36.609375 66.296875 36.953125Q68.171875 37.453125 68.90625 37.78125Q69.640625 38.09375 70.0625 38.703125Q70.484375 39.296875 70.484375 40.203125Q70.484375 41.078125 69.96875 41.859375Q69.453125 42.640625 68.484375 43.0625Q67.515625 43.484375 66.296875 43.484375Q64.28125 43.484375 63.21875 42.640625Q62.15625 41.796875 61.859375 40.15625ZM79.671875 39.90625L81.484375 40.140625Q81.0625 41.71875 79.890625 42.609375Q78.734375 43.484375 76.921875 43.484375Q74.65625 43.484375 73.3125 42.09375Q71.984375 40.6875 71.984375 38.15625Q71.984375 35.53125 73.328125 34.09375Q74.671875 32.640625 76.828125 32.640625Q78.90625 32.640625 80.21875 34.0625Q81.546875 35.46875 81.546875 38.046875Q81.546875 38.203125 81.53125 38.515625L73.796875 38.515625Q73.890625 40.21875 74.765625 41.125Q75.640625 42.03125 76.9375 42.03125Q77.90625 42.03125 78.578125 41.53125Q79.265625 41.015625 79.671875 39.90625ZM73.890625 37.0625L79.6875 37.0625Q79.578125 35.765625 79.03125 35.109375Q78.1875 34.09375 76.84375 34.09375Q75.640625 34.09375 74.8125 34.90625Q73.984375 35.703125 73.890625 37.0625ZM90.296875 43.25L90.296875 41.9375Q89.3125 43.484375 87.390625 43.484375Q86.15625 43.484375 85.109375 42.796875Q84.078125 42.109375 83.5 40.890625Q82.9375 39.671875 82.9375 38.078125Q82.9375 36.515625 83.453125 35.25Q83.96875 33.984375 85.0 33.3125Q86.046875 32.640625 87.3125 32.640625Q88.25 32.640625 88.984375 33.046875Q89.71875 33.4375 90.1875 34.0625L90.1875 28.9375L91.921875 28.9375L91.921875 43.25L90.296875 43.25ZM84.734375 38.078125Q84.734375 40.0625 85.578125 41.046875Q86.421875 42.03125 87.5625 42.03125Q88.71875 42.03125 89.515625 41.09375Q90.328125 40.15625 90.328125 38.21875Q90.328125 36.09375 89.5 35.09375Q88.6875 34.09375 87.484375 34.09375Q86.3125 34.09375 85.515625 35.0625Q84.734375 36.015625 84.734375 38.078125ZM93.875 31.5625L94.328125 30.171875Q95.875 30.71875 96.578125 31.125Q96.390625 29.359375 96.390625 28.6875L97.796875 28.6875Q97.765625 29.65625 97.578125 31.109375Q98.578125 30.609375 99.875 30.171875L100.328125 31.5625Q99.09375 31.96875 97.90625 32.109375Q98.5 32.625 99.578125 33.953125L98.40625 34.78125Q97.84375 34.015625 97.0625 32.6875Q96.34375 34.0625 95.796875 34.78125L94.640625 33.953125Q95.78125 32.5625 96.265625 32.109375Q95.015625 31.859375 93.875 31.5625ZM111.3125 41.5625L111.3125 43.25L101.859375 43.25Q101.84375 42.609375 102.0625 42.03125Q102.421875 41.0625 103.21875 40.125Q104.015625 39.1875 105.515625 37.953125Q107.859375 36.046875 108.671875 34.9375Q109.5 33.8125 109.5 32.8125Q109.5 31.765625 108.75 31.046875Q108.0 30.328125 106.796875 30.328125Q105.53125 30.328125 104.765625 31.09375Q104.0 31.859375 104.0 33.203125L102.1875 33.015625Q102.375 31.0 103.578125 29.9375Q104.796875 28.875 106.84375 28.875Q108.890625 28.875 110.09375 30.015625Q111.296875 31.15625 111.296875 32.84375Q111.296875 33.703125 110.9375 34.546875Q110.59375 35.375 109.78125 36.296875Q108.96875 37.203125 107.078125 38.8125Q105.484375 40.140625 105.03125 40.609375Q104.59375 41.078125 104.296875 41.5625L111.3125 41.5625Z" fill-rule="nonzero"/></svg>